<?xml version="1.0" encoding="UTF-8"?>
<svg id="Layer_2" data-name="Layer 2" xmlns="http://www.w3.org/2000/svg" xmlns:xlink="http://www.w3.org/1999/xlink" viewBox="0 0 549.46 119.66">
  <defs>
    <style>
      .cls-1, .cls-2 {
        fill: none;
      }

      .cls-3 {
        fill: url(#linear-gradient-3);
      }

      .cls-4 {
        fill: url(#linear-gradient-2);
      }

      .cls-5 {
        fill: url(#linear-gradient);
      }

      .cls-6, .cls-2 {
        isolation: isolate;
      }

      .cls-7 {
        fill: #10274e;
      }

      .cls-2 {
        mix-blend-mode: overlay;
        opacity: .5;
        stroke: #fff;
        stroke-miterlimit: 10;
        stroke-width: .66px;
      }

      .cls-8 {
        clip-path: url(#clippath);
      }
    </style>
    <linearGradient id="linear-gradient" x1="24.03" y1="282.16" x2="47.43" y2="386.4" gradientTransform="translate(0 393.63) scale(1 -1)" gradientUnits="userSpaceOnUse">
      <stop offset="0" stop-color="#337fdb"/>
      <stop offset="1" stop-color="#164dc1"/>
    </linearGradient>
    <linearGradient id="linear-gradient-2" x1="7710.98" y1="282.16" x2="7734.38" y2="386.4" gradientTransform="translate(7897.94 393.63) rotate(-180)" xlink:href="#linear-gradient"/>
    <linearGradient id="linear-gradient-3" x1="105" y1="390.07" x2="108.75" y2="285.22" gradientTransform="translate(0 393.63) scale(1 -1)" gradientUnits="userSpaceOnUse">
      <stop offset="0" stop-color="#4db0f4"/>
      <stop offset="1" stop-color="#164dc1"/>
    </linearGradient>
    <clipPath id="clippath">
      <path class="cls-1" d="M173.66,0h-33.11c-3.36,0-6.38,2.01-7.7,5.11l-28,67.72L76.89,5.11c-1.28-3.09-4.33-5.11-7.7-5.11h-33.11c-.31,0-.66,0-.97.08,2.55.35,4.8,1.86,6.11,4.1l38.95,94.22c4.14,9.98,13.89,16.52,24.68,16.52s20.54-6.5,24.68-16.52L168.52,4.18c1.28-2.24,3.56-3.75,6.11-4.1-.31-.04-.62-.08-.97-.08Z"/>
    </clipPath>
  </defs>
  <g id="Layer_1-2" data-name="Layer 1">
    <g>
      <g class="cls-6">
        <g id="Layer_1-3" data-name="Layer 1-3">
          <g id="Layer_11" data-name="Layer 11">
            <g>
              <path class="cls-5" d="M71.28,0l-31.33,119.48s-39.95.43-39.95,0L30.09,4.6c.7-2.71,3.17-4.6,5.96-4.6h35.24Z"/>
              <path class="cls-4" d="M139.7,0l31.33,119.48s39.95.43,39.95,0L180.9,4.6c-.7-2.71-3.17-4.6-5.96-4.6h-35.24,0Z"/>
              <path class="cls-3" d="M173.66,0h-33.11c-3.36,0-6.38,2.01-7.7,5.11l-28,67.72L76.89,5.11c-1.28-3.09-4.33-5.11-7.7-5.11h-33.11c-.31,0-.66,0-.97.08,2.55.35,4.8,1.86,6.11,4.1l38.95,94.22c4.14,9.98,13.89,16.52,24.68,16.52h0c10.79,0,20.54-6.5,24.68-16.52L168.52,4.18c1.28-2.24,3.56-3.75,6.11-4.1-.31-.04-.62-.08-.97-.08Z"/>
              <g class="cls-8">
                <g>
                  <path class="cls-2" d="M93.6,115.41c12.72-4.37,16.71-27.77,41.23-30.79,22.24-2.75,22.36-4.37,22.36-4.37"/>
                  <path class="cls-2" d="M90.78,114.8c14.5-6.15,21.93-30.28,38.21-34.77,16.98-4.68,19.42-5.84,19.42-5.84"/>
                  <path class="cls-2" d="M88.57,113.44c14-5.72,23.4-32.8,40.42-37.71,15.16-4.37,21.08-9.09,21.08-9.09"/>
                  <path class="cls-2" d="M87.64,111.66c16.4-8.55,21.74-33.61,41.58-40.53,19.84-6.88,24.02-14.19,24.02-14.19"/>
                  <path class="cls-2" d="M86.06,109.23c13.77-3.25,21.31-35.08,40.3-42.39,18.99-7.31,25.18-12.84,30.28-20.89"/>
                  <path class="cls-2" d="M84.36,107.45c14.74-3.13,21.74-39.68,43.55-46.99,20.11-6.73,33.42-27.35,33.42-27.35"/>
                </g>
              </g>
            </g>
          </g>
        </g>
      </g>
      <g>
        <path class="cls-7" d="M285.83,54.91l-13.48,15.96h-2.63l-13.18-15.88v31.32h-14.76v-52.71h15.59l13.85,17.84,13.85-17.84h15.51v52.7h-14.76v-31.39h0Z"/>
        <path class="cls-7" d="M317.63,86.31v-52.7h14.83v52.7h-14.83Z"/>
        <path class="cls-7" d="M396.37,79.46c-5.95,5.87-13.18,8.21-21.16,8.21-20.7,0-28.76-13.03-28.84-27.33-.07-13.55,9.04-27.93,28.84-27.93,7.6,0,14.46,2.63,20.4,8.43l-9.19,9.04c-3.76-3.61-7.68-4.59-11.22-4.59-10.16,0-14.16,8.28-14.08,15.13.07,6.85,3.69,14.61,14.08,14.61,3.54,0,8.66-1.5,12.42-5.35l8.73,9.79h0Z"/>
        <path class="cls-7" d="M454.05,79.46c-5.95,5.87-13.18,8.21-21.16,8.21-20.7,0-28.76-13.03-28.84-27.33-.07-13.55,9.04-27.93,28.84-27.93,7.6,0,14.46,2.63,20.4,8.43l-9.19,9.04c-3.76-3.61-7.68-4.59-11.22-4.59-10.16,0-14.16,8.28-14.08,15.13.07,6.85,3.69,14.61,14.08,14.61,3.54,0,8.66-1.5,12.42-5.35l8.73,9.79h0Z"/>
        <path class="cls-7" d="M504.33,77.65h-23.57l-3.46,8.66h-15.81l23.64-52.7h15.06l23.57,52.7h-15.96l-3.46-8.66h0ZM492.59,48.36l-6.78,16.79h13.48s-6.7-16.79-6.7-16.79Z"/>
        <path class="cls-7" d="M534.62,86.31v-52.7h14.83v52.7h-14.83Z"/>
      </g>
    </g>
  </g>
</svg>